<svg version="1.1" id="Layer_1" xmlns="http://www.w3.org/2000/svg" xmlns:xlink="http://www.w3.org/1999/xlink" x="0px" y="0px"
	 width="100%" viewBox="0 0 148 148" enable-background="new 0 0 148 148" xml:space="preserve">
<path fill="#FEFFFE" opacity="1.000000" stroke="none" 
	d="
M73.000000,149.000000 
	C48.686802,149.000000 24.873606,149.000000 1.030205,149.000000 
	C1.030205,99.728500 1.030205,50.456978 1.030205,1.092727 
	C50.229679,1.092727 99.459587,1.092727 148.844757,1.092727 
	C148.844757,50.332954 148.844757,99.666420 148.844757,149.000000 
	C123.790642,149.000000 98.645317,149.000000 73.000000,149.000000 
M66.993423,67.987305 
	C66.993423,67.987305 66.977531,68.054420 67.356895,67.894005 
	C67.586258,67.734512 67.760429,67.528404 68.455414,66.870628 
	C70.263710,64.520485 72.230087,62.271107 73.817719,59.780312 
	C74.692276,58.408249 75.833870,55.920750 75.259438,55.189407 
	C74.198204,53.838276 72.021149,52.955467 70.200630,52.721970 
	C68.327934,52.481773 66.124229,52.830418 64.416634,53.651722 
	C58.193146,56.645069 52.116474,59.943680 45.322796,62.939800 
	C41.392937,59.884796 37.630226,56.578758 33.498177,53.827408 
	C25.073895,48.218052 16.441002,48.567165 8.921316,54.601326 
	C19.711630,69.981964 30.511992,85.376930 41.662998,101.271706 
	C50.084141,90.150543 58.080856,79.589882 66.015488,69.001556 
	C66.015488,69.001556 66.006310,69.068825 66.559334,68.963051 
	C66.726692,68.641647 66.894058,68.320251 66.993423,67.987305 
M98.854729,83.307808 
	C97.269875,86.991188 95.685028,90.674568 94.100174,94.357948 
	C97.531357,93.510086 100.064346,90.973564 102.597198,90.973717 
	C105.140839,90.973877 107.684326,93.501251 111.425682,95.589722 
	C108.345222,88.371880 105.882851,82.602295 103.420479,76.832703 
	C102.896843,76.896812 102.373215,76.960922 101.849579,77.025024 
	C100.930466,78.880165 100.011353,80.735313 98.854729,83.307808 
M130.341003,92.046394 
	C131.863129,95.269669 135.369507,95.827606 140.723068,92.441612 
	C138.344482,92.052864 135.965881,91.664116 133.576477,91.273598 
	C130.954102,84.369476 139.134186,89.057976 139.917770,84.819946 
	C138.530273,84.599754 137.184189,84.517090 135.924301,84.143623 
	C134.964615,83.859154 134.114288,83.205666 133.215317,82.716354 
	C134.106674,82.068459 134.931137,81.284592 135.905441,80.805298 
	C137.285019,80.126617 138.775146,79.672623 140.218018,79.122597 
	C140.100418,78.728088 139.982803,78.333572 139.865189,77.939056 
	C136.852951,77.939056 133.840714,77.939056 130.338120,77.939056 
	C130.338120,82.590424 130.338120,86.867043 130.341003,92.046394 
M81.721321,82.728104 
	C80.188904,80.879211 80.687576,76.956726 75.848572,77.435158 
	C78.794167,83.742424 81.491531,89.518166 84.188896,95.293907 
	C84.725731,95.208778 85.262566,95.123642 85.799393,95.038513 
	C88.121017,89.249756 90.442642,83.460991 92.764267,77.672226 
	C86.909233,79.386414 87.986862,85.509323 84.640427,89.115578 
	C83.661781,86.978867 82.843857,85.193069 81.721321,82.728104 
M118.984795,85.477364 
	C118.728195,82.957680 118.471603,80.437988 118.215004,77.918304 
	C117.594666,78.014526 116.974335,78.110748 116.354004,78.206970 
	C116.354004,83.643158 116.354004,89.079338 116.354004,95.135864 
	C120.092209,94.774979 123.369194,94.458618 126.646187,94.142258 
	C126.614204,93.511963 126.582230,92.881668 126.550247,92.251373 
	C124.178284,92.034325 121.806320,91.817284 118.984657,91.559090 
	C118.984657,89.651031 118.984657,88.031319 118.984795,85.477364 
z"/>
<path fill="#0AA3A9" opacity="1.000000" stroke="none" 
	d="
M66.077576,69.029228 
	C58.080856,79.589882 50.084141,90.150543 41.662998,101.271706 
	C30.511992,85.376930 19.711630,69.981964 8.921316,54.601326 
	C16.441002,48.567165 25.073895,48.218052 33.498177,53.827408 
	C37.630226,56.578758 41.392937,59.884796 45.813919,63.327366 
	C51.814465,69.509949 58.692383,70.213272 66.077576,69.029228 
z"/>
<path fill="#EAC448" opacity="1.000000" stroke="none" 
	d="
M66.046532,69.015396 
	C58.692383,70.213272 51.814465,69.509949 46.144756,63.421082 
	C52.116474,59.943680 58.193146,56.645069 64.416634,53.651722 
	C66.124229,52.830418 68.327934,52.481773 70.200630,52.721970 
	C72.021149,52.955467 74.198204,53.838276 75.259438,55.189407 
	C75.833870,55.920750 74.692276,58.408249 73.817719,59.780312 
	C72.230087,62.271107 70.263710,64.520485 67.972771,67.144089 
	C67.229614,67.557617 67.058754,67.769905 66.977531,68.054420 
	C66.977531,68.054420 66.993423,67.987305 66.720360,68.012650 
	C66.300301,68.381599 66.153305,68.725212 66.006310,69.068825 
	C66.006310,69.068825 66.015488,69.001556 66.046532,69.015396 
z"/>
<path fill="#919193" opacity="1.000000" stroke="none" 
	d="
M98.973488,82.949127 
	C100.011353,80.735313 100.930466,78.880165 101.849579,77.025024 
	C102.373215,76.960922 102.896843,76.896812 103.420479,76.832703 
	C105.882851,82.602295 108.345222,88.371880 111.425682,95.589722 
	C107.684326,93.501251 105.140839,90.973877 102.597198,90.973717 
	C100.064346,90.973564 97.531357,93.510086 94.100174,94.357948 
	C95.685028,90.674568 97.269875,86.991188 98.973488,82.949127 
z"/>
<path fill="#929293" opacity="1.000000" stroke="none" 
	d="
M130.339569,91.595032 
	C130.338120,86.867043 130.338120,82.590424 130.338120,77.939056 
	C133.840714,77.939056 136.852951,77.939056 139.865189,77.939056 
	C139.982803,78.333572 140.100418,78.728088 140.218018,79.122597 
	C138.775146,79.672623 137.285019,80.126617 135.905441,80.805298 
	C134.931137,81.284592 134.106674,82.068459 133.215317,82.716354 
	C134.114288,83.205666 134.964615,83.859154 135.924301,84.143623 
	C137.184189,84.517090 138.530273,84.599754 139.917770,84.819946 
	C139.134186,89.057976 130.954102,84.369476 133.576477,91.273598 
	C135.965881,91.664116 138.344482,92.052864 140.723068,92.441612 
	C135.369507,95.827606 131.863129,95.269669 130.339569,91.595032 
z"/>
<path fill="#949495" opacity="1.000000" stroke="none" 
	d="
M81.873627,83.067688 
	C82.843857,85.193069 83.661781,86.978867 84.640427,89.115578 
	C87.986862,85.509323 86.909233,79.386414 92.764267,77.672226 
	C90.442642,83.460991 88.121017,89.249756 85.799393,95.038513 
	C85.262566,95.123642 84.725731,95.208778 84.188896,95.293907 
	C81.491531,89.518166 78.794167,83.742424 75.848572,77.435158 
	C80.687576,76.956726 80.188904,80.879211 81.873627,83.067688 
z"/>
<path fill="#939393" opacity="1.000000" stroke="none" 
	d="
M118.984726,85.944489 
	C118.984657,88.031319 118.984657,89.651031 118.984657,91.559090 
	C121.806320,91.817284 124.178284,92.034325 126.550247,92.251373 
	C126.582230,92.881668 126.614204,93.511963 126.646187,94.142258 
	C123.369194,94.458618 120.092209,94.774979 116.354004,95.135864 
	C116.354004,89.079338 116.354004,83.643158 116.354004,78.206970 
	C116.974335,78.110748 117.594666,78.014526 118.215004,77.918304 
	C118.471603,80.437988 118.728195,82.957680 118.984726,85.944489 
z"/>
<path fill="#0AA3A9" opacity="1.000000" stroke="none" 
	d="
M67.167213,67.974213 
	C67.058754,67.769905 67.229614,67.557617 67.684769,67.346619 
	C67.760429,67.528404 67.586258,67.734512 67.167213,67.974213 
z"/>
<path fill="#0AA3A9" opacity="1.000000" stroke="none" 
	d="
M66.282822,69.015938 
	C66.153305,68.725212 66.300301,68.381599 66.754364,68.018417 
	C66.894058,68.320251 66.726692,68.641647 66.282822,69.015938 
z"/>
</svg>